# xmcd
#
# Track frame offsets:
#	150
#	14926
#	30959
#	45429
#	62572
#	77938
#	94560
#	108071
#	127347
#	146576
#
# Disc length: 2441 seconds
#
# Revision: 0
# Processed by: cddbd v1.5.1PL0 Copyright (c) Steve Scherf et al.
# Submitted via: EasyCDDAExtractor 8.2.3.1
#
DISCID=7f09870a
DTITLE=Vidar Busk - Starfish
DYEAR=2005
DGENRE=Blues
TTITLE0=Multiball
TTITLE1=U-Turn
TTITLE2=Gotcha'
TTITLE3=Can't Stand Steady
TTITLE4=Starfish
TTITLE5=Aqua Lounge
TTITLE6=Party Belle
TTITLE7=Twilight Serenade
TTITLE8=Palmetto
TTITLE9=Everblue
EXTD=
EXTT0=
EXTT1=
EXTT2=
EXTT3=
EXTT4=
EXTT5=
EXTT6=
EXTT7=
EXTT8=
EXTT9=
PLAYORDER=
